<svg width="136" height="28" viewBox="0 0 136 28" fill="none" xmlns="http://www.w3.org/2000/svg">
<path d="M2 11.8151C15.0466 11.8151 27.5627 17.6675 40.7013 18.0226C51.8453 18.3238 66.6376 20.4319 76.5243 14.0346C79.3603 12.1995 80.763 8.25832 78.4317 5.26087C76.4023 2.65164 72.3539 2.4519 69.3805 2.4519C66.3115 2.4519 63.4667 4.79421 61.6472 7.13352C60.0727 9.15787 60.6762 12.2162 60.6762 14.6241C60.6762 16.4759 65.3609 20.7334 66.9184 21.1784C68.6285 21.667 70.3498 22.6207 72.1202 23.1897C74.9584 24.102 77.7672 24.1251 80.6858 24.6115C95.5002 27.0806 110.465 24.0591 124.207 18.6815C126.399 17.824 128.221 16.4737 130.276 15.5604C130.836 15.3117 133.508 13.113 132.322 13.0636C127.937 12.8808 123.701 12.0325 119.352 11.8151C118.18 11.7565 114.884 10.5667 116.058 10.5667C118.299 10.5667 120.915 10.2016 123.098 10.7054C124.479 11.0241 134.334 12.0523 134.334 13.6878C134.334 14.8626 130.146 18.6106 129.201 19.7912C127.839 21.494 127.139 23.707 126.219 25.5479" stroke="black" stroke-width="3" stroke-linecap="round"/>
</svg>
