<svg width="184" height="42" viewBox="0 0 184 42" fill="none" xmlns="http://www.w3.org/2000/svg">
<path d="M4.128 31.144C4.224 31.864 4.524 32.496 5.028 33.04C5.532 33.584 6.2 34.004 7.032 34.3C7.872 34.596 8.832 34.744 9.912 34.744C10.976 34.744 11.904 34.632 12.696 34.408C13.488 34.176 14.096 33.848 14.52 33.424C14.952 33 15.168 32.504 15.168 31.936C15.168 31.456 15.048 31.064 14.808 30.76C14.576 30.456 14.188 30.212 13.644 30.028C13.108 29.836 12.36 29.68 11.4 29.56L7.512 29.056C6.048 28.864 4.86 28.564 3.948 28.156C3.044 27.748 2.376 27.212 1.944 26.548C1.512 25.876 1.296 25.048 1.296 24.064C1.296 22.976 1.628 22.028 2.292 21.22C2.956 20.404 3.896 19.776 5.112 19.336C6.336 18.888 7.76 18.664 9.384 18.664C10.984 18.664 12.412 18.904 13.668 19.384C14.932 19.864 15.932 20.54 16.668 21.412C17.404 22.276 17.808 23.272 17.88 24.4H14.664C14.584 23.768 14.316 23.216 13.86 22.744C13.404 22.272 12.784 21.908 12 21.652C11.224 21.388 10.328 21.256 9.312 21.256C8.336 21.256 7.48 21.364 6.744 21.58C6.016 21.796 5.452 22.108 5.052 22.516C4.66 22.924 4.464 23.4 4.464 23.944C4.464 24.384 4.576 24.748 4.8 25.036C5.024 25.316 5.388 25.552 5.892 25.744C6.404 25.928 7.096 26.08 7.968 26.2L11.904 26.752C13.544 26.976 14.824 27.28 15.744 27.664C16.672 28.04 17.336 28.54 17.736 29.164C18.136 29.788 18.336 30.6 18.336 31.6C18.336 32.744 17.984 33.752 17.28 34.624C16.576 35.488 15.584 36.156 14.304 36.628C13.024 37.1 11.544 37.336 9.864 37.336C8.152 37.336 6.628 37.08 5.292 36.568C3.964 36.048 2.916 35.32 2.148 34.384C1.388 33.448 0.976 32.368 0.912 31.144H4.128ZM23.4656 31.312C23.7376 32.44 24.3496 33.32 25.3016 33.952C26.2616 34.576 27.4736 34.888 28.9376 34.888C29.9856 34.888 31.0496 34.724 32.1296 34.396C33.2176 34.06 34.1776 33.6 35.0096 33.016V35.272C34.1696 35.912 33.1536 36.416 31.9616 36.784C30.7776 37.152 29.5696 37.336 28.3376 37.336C26.7616 37.336 25.3496 37.036 24.1016 36.436C22.8616 35.836 21.8936 34.996 21.1976 33.916C20.5016 32.828 20.1536 31.584 20.1536 30.184C20.1536 28.792 20.4856 27.56 21.1496 26.488C21.8136 25.408 22.7376 24.572 23.9216 23.98C25.1056 23.38 26.4496 23.08 27.9536 23.08C29.4496 23.08 30.7576 23.42 31.8776 24.1C33.0056 24.78 33.8736 25.744 34.4816 26.992C35.0896 28.232 35.3936 29.672 35.3936 31.312H23.4656ZM27.8816 25.528C27.0976 25.528 26.3936 25.668 25.7696 25.948C25.1536 26.22 24.6416 26.612 24.2336 27.124C23.8256 27.636 23.5536 28.24 23.4176 28.936H32.1536C31.9296 27.856 31.4416 27.02 30.6896 26.428C29.9456 25.828 29.0096 25.528 27.8816 25.528ZM40.5047 31.312C40.7767 32.44 41.3887 33.32 42.3407 33.952C43.3007 34.576 44.5127 34.888 45.9767 34.888C47.0247 34.888 48.0887 34.724 49.1687 34.396C50.2567 34.06 51.2167 33.6 52.0487 33.016V35.272C51.2087 35.912 50.1927 36.416 49.0007 36.784C47.8167 37.152 46.6087 37.336 45.3767 37.336C43.8007 37.336 42.3887 37.036 41.1407 36.436C39.9007 35.836 38.9327 34.996 38.2367 33.916C37.5407 32.828 37.1927 31.584 37.1927 30.184C37.1927 28.792 37.5247 27.56 38.1887 26.488C38.8527 25.408 39.7767 24.572 40.9607 23.98C42.1447 23.38 43.4887 23.08 44.9927 23.08C46.4887 23.08 47.7967 23.42 48.9167 24.1C50.0447 24.78 50.9127 25.744 51.5207 26.992C52.1287 28.232 52.4327 29.672 52.4327 31.312H40.5047ZM44.9207 25.528C44.1367 25.528 43.4327 25.668 42.8087 25.948C42.1927 26.22 41.6807 26.612 41.2727 27.124C40.8647 27.636 40.5927 28.24 40.4567 28.936H49.1927C48.9687 27.856 48.4807 27.02 47.7287 26.428C46.9847 25.828 46.0487 25.528 44.9207 25.528ZM71.4398 18.52L70.2158 30.016L70.9118 37H67.7198L67.3718 33.544C66.6678 34.744 65.7718 35.676 64.6838 36.34C63.5958 37.004 62.3918 37.336 61.0718 37.336C59.7598 37.336 58.5878 37.04 57.5558 36.448C56.5238 35.848 55.7198 35.008 55.1438 33.928C54.5678 32.848 54.2798 31.608 54.2798 30.208C54.2798 28.808 54.5678 27.568 55.1438 26.488C55.7198 25.408 56.5238 24.572 57.5558 23.98C58.5878 23.38 59.7598 23.08 61.0718 23.08C62.3998 23.08 63.6038 23.412 64.6838 24.076C65.7718 24.732 66.6678 25.66 67.3718 26.86L68.2238 18.52H71.4398ZM61.8158 34.84C62.6558 34.84 63.4438 34.648 64.1798 34.264C64.9238 33.872 65.5798 33.328 66.1478 32.632C66.7238 31.936 67.1838 31.128 67.5278 30.208C67.1838 29.296 66.7238 28.492 66.1478 27.796C65.5798 27.1 64.9238 26.556 64.1798 26.164C63.4438 25.772 62.6558 25.576 61.8158 25.576C60.9758 25.576 60.2238 25.776 59.5598 26.176C58.8958 26.568 58.3758 27.116 57.9998 27.82C57.6318 28.516 57.4478 29.312 57.4478 30.208C57.4478 31.104 57.6318 31.904 57.9998 32.608C58.3758 33.312 58.8958 33.86 59.5598 34.252C60.2238 34.644 60.9758 34.84 61.8158 34.84ZM75.5698 23.944C75.5698 22.776 75.7858 21.764 76.2178 20.908C76.6578 20.044 77.3258 19.376 78.2218 18.904C79.1258 18.424 80.2578 18.184 81.6178 18.184C82.2098 18.184 82.7498 18.236 83.2378 18.34C83.7258 18.444 84.2178 18.592 84.7138 18.784V21.232C84.2978 21.016 83.8658 20.86 83.4178 20.764C82.9698 20.66 82.4818 20.608 81.9538 20.608C80.8258 20.608 79.9978 20.84 79.4698 21.304C78.9498 21.76 78.6898 22.512 78.6898 23.56V24.352H84.6418V26.752H78.6898V37H75.5698V26.752H72.6658V24.352H75.5698V23.944ZM86.9938 37V18.52H90.1138V37H86.9938ZM100.949 37.336C99.3173 37.336 97.8733 37.04 96.6173 36.448C95.3693 35.848 94.3973 35.008 93.7013 33.928C93.0133 32.848 92.6693 31.608 92.6693 30.208C92.6693 28.808 93.0133 27.568 93.7013 26.488C94.3973 25.408 95.3693 24.572 96.6173 23.98C97.8733 23.38 99.3173 23.08 100.949 23.08C102.581 23.08 104.021 23.38 105.269 23.98C106.525 24.572 107.497 25.408 108.185 26.488C108.881 27.568 109.229 28.808 109.229 30.208C109.229 31.608 108.881 32.848 108.185 33.928C107.497 35.008 106.525 35.848 105.269 36.448C104.021 37.04 102.581 37.336 100.949 37.336ZM100.949 34.888C101.989 34.888 102.893 34.7 103.661 34.324C104.429 33.94 105.021 33.396 105.437 32.692C105.853 31.988 106.061 31.16 106.061 30.208C106.061 29.264 105.853 28.44 105.437 27.736C105.021 27.032 104.429 26.488 103.661 26.104C102.893 25.72 101.989 25.528 100.949 25.528C99.9093 25.528 99.0053 25.72 98.2373 26.104C97.4693 26.488 96.8773 27.032 96.4613 27.736C96.0453 28.44 95.8373 29.264 95.8373 30.208C95.8373 31.16 96.0453 31.988 96.4613 32.692C96.8773 33.396 97.4693 33.94 98.2373 34.324C99.0053 34.7 99.9093 34.888 100.949 34.888ZM128.387 33.964L132.515 23.416H135.635L130.163 37H126.971L122.771 26.368L118.475 37H115.283L109.835 23.416H113.003L117.119 33.892L121.235 23.416H124.355L128.387 33.964Z" fill="black"/>
<path d="M180.5 12.25V16.625C180.5 18.1188 180.206 19.5979 179.634 20.978C179.062 22.3581 178.225 23.6121 177.168 24.6683C176.112 25.7246 174.858 26.5625 173.478 27.1341C172.098 27.7058 170.619 28 169.125 28H164.75V36.75H161.25V24.5L161.283 22.75C161.504 19.893 162.794 17.2245 164.897 15.2779C167 13.3312 169.76 12.2499 172.625 12.25H180.5ZM152.5 5.25C155.071 5.25019 157.578 6.05908 159.664 7.56218C161.75 9.06528 163.311 11.1865 164.125 13.6255C162.786 14.7603 161.689 16.1529 160.899 17.7205C160.109 19.288 159.643 20.9985 159.528 22.75H157.75C154.501 22.75 151.385 21.4594 149.088 19.1621C146.791 16.8647 145.5 13.7489 145.5 10.5V5.25H152.5Z" fill="black"/>
</svg>
