<svg width="35" height="32" viewBox="0 0 35 32" fill="none" xmlns="http://www.w3.org/2000/svg">
<path d="M35 7V11.375C35 12.8688 34.706 14.3479 34.134 15.728C33.562 17.1081 32.725 18.3621 31.668 19.4183C30.612 20.4746 29.358 21.3125 27.978 21.8841C26.598 22.4558 25.119 22.75 23.625 22.75H19.25V31.5H15.75V19.25L15.783 17.5C16.004 14.643 17.294 11.9745 19.397 10.0279C21.5 8.0812 24.26 6.9999 27.125 7H35ZM7 0C9.571 0.00019 12.078 0.80908 14.164 2.31218C16.25 3.81528 17.811 5.9365 18.625 8.3755C17.286 9.5103 16.189 10.9029 15.399 12.4705C14.609 14.038 14.143 15.7485 14.028 17.5H12.25C9.001 17.5 5.885 16.2094 3.588 13.9121C1.291 11.6147 0 8.4989 0 5.25V0H7Z" fill="white"/>
</svg>
